<?xml version="1.0" encoding="UTF-8" standalone="no"?>
<!-- Created with Inkscape (http://www.inkscape.org/) -->

<svg
   xmlns:dc="http://purl.org/dc/elements/1.1/"
   xmlns:cc="http://creativecommons.org/ns#"
   xmlns:rdf="http://www.w3.org/1999/02/22-rdf-syntax-ns#"
   xmlns:svg="http://www.w3.org/2000/svg"
   xmlns="http://www.w3.org/2000/svg"
   xmlns:sodipodi="http://sodipodi.sourceforge.net/DTD/sodipodi-0.dtd"
   xmlns:inkscape="http://www.inkscape.org/namespaces/inkscape"
   width="210px"
   height="297px"
   viewBox="0 0 210 297"
   version="1.1"
   id="svg5"
   inkscape:version="0.92.5 (2060ec1f9f, 2020-04-08)"
   sodipodi:docname="developer.svg">
  <metadata
     id="metadata3725">
    <rdf:RDF>
      <cc:Work
         rdf:about="">
        <dc:format>image/svg+xml</dc:format>
        <dc:type
           rdf:resource="http://purl.org/dc/dcmitype/StillImage" />
        <dc:title></dc:title>
      </cc:Work>
    </rdf:RDF>
  </metadata>
  <sodipodi:namedview
     id="namedview7"
     pagecolor="#ffffff"
     bordercolor="#666666"
     borderopacity="1.0"
     inkscape:pageshadow="2"
     inkscape:pageopacity="0.0"
     inkscape:pagecheckerboard="0"
     inkscape:document-units="px"
     showgrid="false"
     inkscape:zoom="0.35275978"
     inkscape:cx="328.55924"
     inkscape:cy="519.75622"
     inkscape:window-width="1366"
     inkscape:window-height="697"
     inkscape:window-x="0"
     inkscape:window-y="0"
     inkscape:window-maximized="1"
     inkscape:current-layer="layer1"
     units="mm" />
  <defs
     id="defs2" />
  <g
     inkscape:label="Camada 1"
     inkscape:groupmode="layer"
     id="layer1"
     transform="translate(0,87)">
    <g
       id="g10055"
       inkscape:export-filename="/home/mateus/myProjects/mateussdev.github.io/assets/developer1.svg"
       inkscape:export-xdpi="96"
       inkscape:export-ydpi="96"
       style="fill:none"
       transform="matrix(1.7338534,0,0,1.7338534,-116.373,-127.23269)">
      <path
         style="fill:none;stroke:#00c9ff;stroke-width:1px;stroke-linecap:butt;stroke-linejoin:miter;stroke-opacity:1"
         d="m 100.48298,126.53987 c 21.3921,-0.60495 56.39085,-0.44801 56.49232,0.20296 1.80341,0.45169 2.42184,2.21437 2.40669,4.20475 l -0.0325,35.11523 -62.496991,-0.15652 c -0.0041,-12.01114 -0.149471,-25.49691 -0.01226,-36.03341 0.399237,-2.02691 1.42497,-3.51818 3.642731,-3.33301 z"
         id="path4559"
         sodipodi:nodetypes="cccccccc"
         inkscape:connector-curvature="0" />
      <path
         style="fill:none;stroke:#00c9ff;stroke-width:1px;stroke-linecap:butt;stroke-linejoin:miter;stroke-opacity:1"
         d="m 96.852498,165.90629 -8.496956,-0.11332 c -6.417825,-3.97452 -7.963399,-8.89493 -6.977899,-14.30672 L 91.74373,124.40502 c 1.764676,-2.59204 2.969389,-5.33273 7.895328,-7.08558 l 14.134502,-7.53117 c -2.57238,-3.54178 -3.38414,-7.4359 -3.46799,-11.475682 -4.19985,-0.255665 -9.48664,-7.755954 -2.58846,-12.142094 -5.9625,-15.539544 0.0258,-31.222113 18.28517,-33.288033 l -0.82493,4.887817 c 10.85806,-4.310411 14.54041,-1.809366 19.42941,-0.453729 l -6.14452,3.491183 c 13.95848,2.804465 12.25349,9.197044 14.41377,14.704184 l -6.69363,-1.428176 c 2.62143,3.416264 5.33981,6.779609 6.55966,10.960952 l -4.41805,0.295177 c 5.73029,3.458958 2.82366,12.334732 -2.44777,13.106447 -0.6244,4.128954 -0.41874,8.791704 -3.41408,11.395984 l 17.50969,9.23818 c 3.26892,2.37414 6.17628,5.82684 7.70876,13.38101 2.60716,7.14395 6.43378,13.8324 7.49361,21.5543 -0.98461,3.85571 0.75169,7.47245 -8.07154,12.01662 l -7.75317,0.0304"
         id="path5829"
         sodipodi:nodetypes="ccccccccccccccccccccccc"
         inkscape:connector-curvature="0" />
      <path
         style="fill:none;stroke:#00c9ff;stroke-width:1px;stroke-linecap:butt;stroke-linejoin:miter;stroke-opacity:1"
         d="m 113.77356,109.78827 c 3.5186,3.80322 7.29345,7.25801 13.37965,7.56999 6.52877,-0.54925 12.17795,-2.30522 15.30893,-7.51596"
         id="path7137"
         sodipodi:nodetypes="ccc"
         inkscape:connector-curvature="0" />
      <path
         style="fill:none;stroke:#00c9ff;stroke-width:1px;stroke-linecap:butt;stroke-linejoin:miter;stroke-opacity:1"
         d="m 107.71711,86.170494 c 3.75447,-5.063423 7.36717,-10.022217 10.05408,-13.284268 9.62944,7.250258 20.18494,11.86943 30.5528,12.453643"
         id="path7305"
         sodipodi:nodetypes="ccc"
         inkscape:connector-curvature="0" />
      <g
         id="g10010"
         transform="translate(-50.021252,65.452888)"
         style="fill:none">
        <path
           style="fill:#00c9ff;stroke:#00c9ff;stroke-width:1px;stroke-linecap:butt;stroke-linejoin:miter;stroke-opacity:1"
           d="m 166.12999,75.088786 c -1.02096,-0.986307 0.57554,-2.073772 1.50072,-1.256329 l 6.22205,6.182839 c 0.40576,0.286494 0.30023,0.647096 0.075,1.025049 l -6.57124,6.463805 c -0.75923,0.679355 -2.35596,-0.0096 -1.41069,-1.288069 l 5.48822,-5.634717 z"
           id="path8599"
           sodipodi:nodetypes="cccccccc"
           inkscape:connector-curvature="0" />
        <path
           style="fill:#00c9ff;stroke:#00c9ff;stroke-width:1px;stroke-linecap:butt;stroke-linejoin:miter;stroke-opacity:1"
           d="m 177.94467,85.126231 11.26914,0.03739 c 1.67075,-0.0349 1.87265,1.541785 0.0547,1.800402 l -11.28919,0.06665 c -1.25471,0.09473 -1.89327,-1.889052 -0.0347,-1.904441 z"
           id="path9299"
           sodipodi:nodetypes="cccccc"
           inkscape:connector-curvature="0" />
      </g>
    </g>
  </g>
</svg>
